<?xml version="1.0" encoding="UTF-8"?>
<svg id="Layer_1" xmlns="http://www.w3.org/2000/svg" version="1.1" viewBox="0 0 150 42">
  <!-- Generator: Adobe Illustrator 30.0.0, SVG Export Plug-In . SVG Version: 2.1.1 Build 123)  -->
  <defs>
    <style>
      .st0 {
        fill: #fff;
      }
    </style>
  </defs>
  <path class="st0" d="M40.22,6.2c-.55-3.24-2.48-5.72-6.31-5.72-2.31,0-4,.91-5.01,2.36-2.84,4-5.54,9.97-7.8,14.98-.34.62-.82.62-1.16,0-2.26-5.01-5.01-10.98-7.8-14.98C11.08,1.4,9.44.48,7.13.48,3.03.48,1.06,3.32.72,6.89-.24,15.99-.24,26.06.72,35.21c.34,3.61,2.41,6.45,6.4,6.45s6.02-2.84,6.36-6.45c.34-3.18.58-5.83.72-9.01h0c-1.06-2.31-1.83-4.05-2.41-6.21-.29-1.11.87-1.35,1.11-.43,1.11,3.47,2.94,7.32,4.62,10.4,1.35,2.46,4.62,2.46,5.97,0,1.69-3.08,3.52-6.94,4.62-10.4.24-.91,1.4-.67,1.11.43-.58,2.17-1.35,3.9-2.41,6.21.14,3.18.38,5.83.72,9.01.34,3.61,2.26,6.45,6.36,6.45s5.92-2.7,6.37-6.18c-2.4-3.65-3.62-8.51-3.62-14.49,0-6.33,1.17-11.2,3.56-14.8Z"/>
  <path class="st0" d="M72.69,6.75c0-.06.01-.12.02-.18-2.97-4.21-7.95-6.57-15.58-6.57-14.11,0-19.17,8.04-19.17,21s5.88,21,19.17,21c7.37,0,12.46-2.48,15.54-6.9-.95-9.17-.94-19.23.02-28.36ZM63.08,19.76c-.05.27-.31.51-.75.7-.68,2.74-1.83,6.99-6.27,6.8-4.24-1.34-3.87-5.73-3.57-8.53-.35-.32-.51-.64-.47-.91.27-1.52,2.48-2.09,5.14-1.79v-.03c.1-.58.57-.99,1.04-.91.47.08.77.62.67,1.21,0,.01,0,.02,0,.03,2.6.63,4.49,1.92,4.22,3.44h0Z"/>
  <path class="st0" d="M113.49,6.2c-.55-3.23-2.48-5.72-6.31-5.72-2.31,0-4,.91-5.01,2.36-2.84,4-5.54,9.97-7.8,14.98-.34.62-.82.62-1.16,0-2.26-5.01-5.01-10.98-7.8-14.98-1.06-1.45-2.7-2.36-5.01-2.36-4.09,0-6.07,2.84-6.4,6.4-.96,9.11-.96,19.17,0,28.32.34,3.61,2.41,6.45,6.4,6.45s6.02-2.84,6.36-6.45c.34-3.18.58-5.83.72-9.01h0c-1.06-2.31-1.83-4.05-2.41-6.21-.29-1.11.87-1.35,1.11-.43,1.11,3.47,2.94,7.32,4.62,10.4,1.35,2.46,4.62,2.46,5.97,0,1.69-3.08,3.52-6.94,4.62-10.4.24-.91,1.4-.67,1.11.43-.58,2.17-1.35,3.9-2.41,6.21.14,3.18.38,5.83.72,9.01.34,3.61,2.26,6.45,6.36,6.45s5.92-2.7,6.37-6.17c-2.4-3.65-3.62-8.51-3.62-14.49,0-6.33,1.17-11.2,3.56-14.8Z"/>
  <path class="st0" d="M111.23,21c0-12.96,5.06-21,19.17-21s19.17,8.04,19.17,21-5.88,21-19.17,21-19.17-8.04-19.17-21ZM136.35,19.76c.27-1.52-1.61-2.81-4.22-3.44,0,0,0-.02,0-.03.1-.59-.2-1.13-.67-1.21-.47-.08-.94.32-1.04.91v.03c-2.66-.3-4.87.27-5.14,1.79-.05.27.12.59.46.91-.3,2.81-.67,7.19,3.57,8.53,4.45.19,5.6-4.05,6.28-6.8.44-.18.7-.42.75-.7h0Z"/>
</svg>