<?xml version="1.0" encoding="UTF-8"?>
<svg id="gr_1972" xmlns="http://www.w3.org/2000/svg" version="1.1" xmlns:xlink="http://www.w3.org/1999/xlink" viewBox="0 0 189 15">
  <!-- Generator: Adobe Illustrator 30.0.0, SVG Export Plug-In . SVG Version: 2.1.1 Build 123)  -->
  <defs>
    <style>
      .st0 {
        fill: #fff;
      }

      .st1 {
        fill: none;
      }

      .st2 {
        clip-path: url(#clippath);
      }
    </style>
    <clipPath id="clippath">
      <rect class="st1" width="189" height="15"/>
    </clipPath>
  </defs>
  <g id="gr_1822">
    <g class="st2">
      <g id="gr_1813">
        <path id="pth_9389" class="st0" d="M15.25.04c-.21-.01-.41.07-.56.21-.18.21-.3.47-.34.75l-2.49,10.35L9.13.97c-.04-.25-.16-.48-.33-.66-.18-.17-.41-.26-.66-.25-.24-.01-.48.08-.66.25-.17.18-.29.41-.33.66l-2.72,10.38L1.94,1c-.04-.28-.16-.54-.34-.75-.15-.15-.36-.22-.57-.21-.38,0-.71.24-.83.6-.06.27-.05.54.05.8l3.04,12.57c.05.28.19.54.39.75.18.18.42.27.67.27.25,0,.49-.09.67-.27.2-.21.34-.47.39-.75l2.73-10.32,2.73,10.32c.05.28.19.54.39.75.37.36.96.36,1.34,0,.2-.21.34-.47.39-.76l3.04-12.57c.09-.26.11-.53.05-.8-.12-.36-.45-.6-.83-.6"/>
        <path id="pth_9390" class="st0" d="M27.44.96c-.07-.23-.18-.43-.33-.62-.33-.37-.9-.41-1.27-.08-.03.03-.06.06-.09.09-.14.18-.25.39-.32.61l-4.53,12.56c-.22.39-.18.87.1,1.22.17.18.41.28.66.28.18,0,.35-.06.48-.17.2-.18.35-.43.41-.69l.88-2.5h5.99l.88,2.5c.06.27.21.52.42.7.14.11.3.16.48.16.25,0,.49-.1.66-.28.28-.35.32-.83.11-1.23L27.44.96ZM28.84,10h-4.81l2.41-6.82,2.4,6.82Z"/>
        <path id="pth_9391" class="st0" d="M44.93,8.32c1.82-.44,3.07-2.13,2.96-4,.1-2.23-1.63-4.11-3.85-4.21-.16,0-.31,0-.47,0h-4.46c-.3-.04-.6.06-.82.26-.2.24-.29.54-.25.85v12.57c-.03.28.02.57.16.82.28.42.84.53,1.26.25.1-.07.19-.15.25-.25.14-.25.2-.54.16-.82v-5.29h3.07l3.19,5.79c.16.29.4.73.9.73.16,0,.32-.05.46-.13.28-.15.46-.43.46-.74,0-.28-.1-.55-.25-.79l-2.78-5.05ZM46.06,4.34c.1,1.28-.86,2.4-2.15,2.49-.16.01-.32,0-.48-.01h-3.57V1.84h3.57c1.29-.15,2.46.77,2.62,2.07.02.14.02.29.01.43"/>
        <path id="pth_9392" class="st0" d="M66.23.04c-.19,0-.37.04-.53.14-.21.15-.37.37-.47.61l-4.21,9.43L56.81.8c-.09-.24-.25-.46-.46-.61-.16-.1-.35-.15-.54-.14-.25,0-.49.1-.65.28-.21.25-.31.56-.28.88v12.6c-.03.28.02.57.16.82.28.42.84.53,1.26.25.1-.07.19-.15.25-.25.14-.25.2-.54.16-.82V4.61l3.3,7.36c.19.43.45.82,1.02.82s.83-.39,1.02-.82l3.3-7.36v9.19c-.03.28.02.57.16.82.28.42.84.53,1.26.25.1-.07.18-.15.25-.25.14-.25.2-.54.16-.82V1.2c.03-.32-.07-.63-.28-.88-.17-.19-.41-.29-.66-.29"/>
        <path id="pth_9393" class="st0" d="M83.3,7.11h-3.13c-.26-.03-.51.02-.74.15-.39.29-.47.84-.18,1.23.05.07.12.13.19.19.22.12.48.17.73.15h2.42c-.01,2.03-.22,2.85-.91,3.57-.6.63-1.44.97-2.31.96-.87.01-1.71-.35-2.3-.99-.82-.87-.93-1.81-.93-4.83,0-2.84.08-3.92.94-4.83,1.17-1.25,3.13-1.32,4.38-.16.43.4.74.91.89,1.48.07.27.21.52.4.72.16.14.36.21.57.21.23,0,.45-.09.61-.25.17-.19.26-.43.24-.69-.08-.81-.41-1.58-.93-2.21-.92-1.19-2.36-1.87-3.87-1.8-1.35-.03-2.65.5-3.59,1.47-1.36,1.42-1.47,2.64-1.47,6.06,0,3.24.06,4.61,1.47,6.06.95.97,2.25,1.5,3.6,1.47,1.35.03,2.65-.51,3.58-1.48,1.23-1.27,1.43-2.54,1.43-5.11v-.26c.04-.31-.06-.61-.25-.85-.22-.2-.52-.3-.82-.26"/>
        <path id="pth_9394" class="st0" d="M98.34,8.32c1.83-.44,3.07-2.13,2.97-4,.1-2.23-1.63-4.11-3.85-4.21-.16,0-.31,0-.47,0h-4.46c-.3-.04-.6.06-.82.26-.2.24-.29.54-.25.85v12.57c-.03.28.02.57.16.82.28.42.84.53,1.26.25.1-.07.19-.15.25-.25.14-.25.2-.54.16-.82v-5.29h3.07l3.19,5.79c.16.29.4.73.9.73.16,0,.32-.05.46-.13.28-.14.46-.43.46-.74,0-.28-.09-.55-.25-.79l-2.78-5.05ZM99.47,4.34c.1,1.28-.86,2.4-2.15,2.49-.16.01-.32,0-.48-.01h-3.57V1.84h3.57c1.29-.15,2.46.77,2.62,2.07.02.14.02.29.01.43"/>
        <path id="pth_9395" class="st0" d="M116.14,1.84c.26.03.51-.02.74-.15.23-.16.36-.43.36-.71,0-.28-.13-.55-.36-.71-.22-.12-.48-.17-.73-.15h-6.91c-.3-.04-.6.06-.82.26-.2.24-.29.54-.25.85v12.6c-.04.31.06.61.25.85.22.2.52.3.82.26h6.91c.26.03.51-.02.74-.15.39-.29.47-.84.18-1.24-.05-.07-.12-.13-.19-.19-.22-.12-.48-.17-.73-.15h-6.15v-4.9h5.08c.26.03.51-.02.74-.15.39-.29.47-.84.18-1.24-.05-.07-.12-.13-.19-.19-.22-.12-.48-.17-.73-.15h-5.08V1.84h6.15Z"/>
        <path id="pth_9396" class="st0" d="M131.05.14c-.12-.07-.26-.1-.4-.1-.15,0-.3.04-.42.13-.21.16-.36.37-.45.61l-2.9,6.01-2.9-6.01c-.09-.24-.24-.46-.45-.61-.12-.09-.27-.13-.42-.13-.14,0-.28.03-.41.1-.26.13-.44.39-.47.68-.01.27.06.53.2.76l3.52,7.32v4.91c-.03.28.02.57.16.82.28.42.84.53,1.26.25.1-.07.18-.15.25-.25.14-.25.2-.54.16-.82v-4.91l3.53-7.32c.14-.23.21-.49.2-.76-.03-.29-.21-.55-.47-.68"/>
        <path id="pth_9397" class="st0" d="M151.84.27c-.22-.12-.48-.17-.73-.15h-7.87c-.26-.03-.51.02-.74.15-.23.16-.36.43-.36.71,0,.28.13.55.36.71.22.12.48.17.73.15h3.02v11.97c-.03.28.02.57.16.82.28.42.84.53,1.26.25.1-.07.18-.15.25-.25.14-.25.2-.54.16-.82V1.84h3.02c.26.03.51-.02.74-.15.23-.16.36-.43.36-.71,0-.28-.13-.55-.36-.71"/>
        <path id="pth_9398" class="st0" d="M162.15.96c-.07-.23-.18-.44-.33-.62-.33-.37-.9-.41-1.27-.08-.03.03-.06.06-.09.09-.14.18-.25.39-.32.61l-4.54,12.56c-.22.39-.18.87.1,1.22.17.18.41.28.66.28.18,0,.35-.06.48-.17.2-.18.35-.43.41-.69l.88-2.5h5.99l.88,2.5c.06.27.21.52.42.7.14.11.3.16.48.16.25,0,.49-.1.66-.28.28-.35.32-.83.11-1.23l-4.54-12.56ZM163.55,10h-4.81l2.41-6.82,2.4,6.82Z"/>
        <path id="pth_9399" class="st0" d="M172.45.04c-.3,0-.59.14-.75.4-.14.25-.2.54-.16.82v12.55c-.03.28.02.57.16.82.28.42.84.53,1.26.25.1-.07.18-.15.25-.25.14-.25.2-.54.16-.82V1.26c.03-.28-.02-.57-.16-.82-.16-.26-.45-.41-.75-.4"/>
        <path id="pth_9400" class="st0" d="M189.09,13.38c-.22-.12-.48-.17-.73-.15h-6.1V1.27c.03-.28-.02-.57-.16-.82-.28-.42-.84-.53-1.26-.25-.1.07-.18.15-.25.25-.14.25-.2.54-.16.82v12.57c-.04.31.06.61.25.85.22.2.52.3.82.26h6.86c.26.03.51-.02.74-.15.39-.29.47-.84.18-1.24-.05-.07-.12-.13-.19-.19"/>
      </g>
    </g>
  </g>
</svg>